<?xml version="1.0" encoding="UTF-8" standalone="no"?>
<svg
   width="194.12262"
   zoomAndPan="magnify"
   viewBox="0 0 145.59196 39.918983"
   height="53.225311"
   preserveAspectRatio="xMidYMid"
   version="1.0"
   id="svg73"
   sodipodi:docname="Astro copy.svg"
   xmlns:inkscape="http://www.inkscape.org/namespaces/inkscape"
   xmlns:sodipodi="http://sodipodi.sourceforge.net/DTD/sodipodi-0.dtd"
   xmlns="http://www.w3.org/2000/svg"
   xmlns:svg="http://www.w3.org/2000/svg">
  <sodipodi:namedview
     id="namedview73"
     pagecolor="#ffffff"
     bordercolor="#000000"
     borderopacity="0.25"
     inkscape:showpageshadow="2"
     inkscape:pageopacity="0.0"
     inkscape:pagecheckerboard="0"
     inkscape:deskcolor="#d1d1d1"
     showgrid="false" />
  <defs
     id="defs1">
    <clipPath
       id="2dfd18dce7-0">
      <path
         d="m 127.34375,163 h 41.25 v 36.71094 h -41.25 z m 0,0"
         clip-rule="nonzero"
         id="path1-6" />
    </clipPath>
  </defs>
  <g
     clip-path="url(#2dfd18dce7-0)"
     id="g4"
     transform="translate(-111.37494,-164.05419)"
     style="fill:#ffffff;fill-opacity:1">
    <g
       transform="matrix(0.122041,0,0,0.121287,127.34254,162.96261)"
       id="g3"
       style="fill:#ffffff;fill-opacity:1">
      <path
         style="fill:#ffffff;fill-opacity:1"
         d="M 175.45455,293.54545 C 173,291.09091 173,291.09091 172.96959,253.79545 172.95287,233.28295 172.56482,217.175 172.10727,218 c -0.45756,0.825 -4.11956,16.125 -8.13779,34 -4.01822,17.875 -7.86709,33.12084 -8.55304,33.87965 -0.79575,0.88028 -2.18269,1.14485 -3.8318,0.73095 -2.10929,-0.5294 -2.58646,-1.24292 -2.59453,-3.87965 -0.005,-1.77702 1.58856,-27.98095 3.54223,-58.23095 1.95367,-30.25 3.97759,-56.02154 4.4976,-57.27008 0.52001,-1.24854 2.1053,-2.71104 3.52287,-3.25 1.41756,-0.53896 4.55726,-0.97992 6.97711,-0.97992 3.18,0 4.64971,-0.48514 5.30149,-1.75 0.51435,-0.99817 0.63687,-12.4904 0.28518,-26.75 -0.61659,-25 -0.61659,-25 -3.19787,-25.30014 -1.48306,-0.17245 -15.09768,4.45281 -32,10.87126 -16.1803,6.14428 -30.14089,11.37724 -31.02353,11.62881 -1.04935,0.29908 -2.33563,-0.78125 -3.71628,-3.12127 C 102.01761,126.6104 100.28383,125 99.326079,125 c -0.957754,0 -16.084841,6.10257 -33.615748,13.56127 -30.632598,13.03293 -31.968078,13.49987 -34.279492,11.98537 -1.322812,-0.86674 -3.310902,-3.35138 -4.417976,-5.52143 -1.107075,-2.17004 -2.005972,-4.75096 -1.99755,-5.73537 0.0084,-0.98441 0.38449,-2.37177 0.835707,-3.08303 0.451217,-0.71125 15.137279,-7.5517 32.635694,-15.201 17.498414,-7.6493 32.293631,-14.38616 32.878259,-14.97078 0.750612,-0.75062 0.66927,-2.01386 -0.276818,-4.299 -0.736878,-1.779815 -1.395663,-4.284271 -1.463966,-5.565453 -0.116061,-2.176968 6.775794,-5.105761 105.302921,-44.75 C 252.91202,28.089259 301.10478,9 302.02212,9 c 0.91735,0 2.36695,0.7875 3.22134,1.75 0.85439,0.9625 4.29914,9.58151 7.65499,19.153354 C 316.2543,39.475199 319,48.105038 319,49.080774 c 0,0.975736 -1.04615,2.596968 -2.32478,3.602737 -1.27863,1.005768 -27.26613,11.205018 -57.75,22.664999 C 210.48185,93.560111 203.0906,96.612237 200.25,99.577734 197,102.97063 197,102.97063 197,132.37833 c 0,25.89348 0.18902,29.48023 1.58179,30.01468 0.86998,0.33385 4.01998,0.60699 7,0.60699 4.06161,0 5.9126,0.49439 7.39277,1.97456 1.08601,1.08601 2.17997,2.99851 2.43102,4.25 0.25106,1.25149 1.66859,27.62828 3.15008,58.61509 2.40472,50.297 2.53133,56.50193 1.18049,57.85277 -0.92065,0.92065 -2.31116,1.25985 -3.5512,0.86628 -1.64959,-0.52356 -2.51282,-2.68745 -4.52889,-11.35278 -1.36996,-5.88825 -4.89051,-21.39082 -7.82345,-34.45014 -2.93293,-13.05932 -5.67011,-23.74682 -6.08261,-23.75 -0.4125,-0.003 -0.75,16.66467 -0.75,37.03967 0,37.04546 0,37.04546 -2.45455,39.5 C 192.40093,295.68998 191.19529,296 185,296 c -6.19529,0 -7.40093,-0.31002 -9.54545,-2.45455 z"
         id="path73" />
    </g>
  </g>
  <g
     fill="#ffffff"
     fill-opacity="1"
     id="g7"
     transform="translate(-111.37494,-164.05419)">
    <g
       transform="translate(110.42182,190.92597)"
       id="g6">
      <g
         id="g5">
        <path
           d="m 13.609375,-5.902344 v 1.046875 H 2.332031 v -1.046875 c 0,-0.59375 0.453125,-1.046875 1.046875,-1.046875 H 12.5625 c 0.59375,0 1.046875,0.453125 1.046875,1.046875 z M 0.953125,0 H 2.332031 V -3.472656 H 13.609375 V 0 h 1.378906 v -5.902344 c 0,-1.402344 -1.023437,-2.425781 -2.425781,-2.425781 H 3.378906 c -1.402344,0 -2.425781,1.023437 -2.425781,2.425781 z m 0,0"
           id="path4" />
      </g>
    </g>
  </g>
  <g
     fill="#ffffff"
     fill-opacity="1"
     id="g10"
     transform="translate(-111.37494,-164.05419)">
    <g
       transform="translate(126.36197,190.92597)"
       id="g9">
      <g
         id="g8">
        <path
           d="M 12.5625,-4.855469 H 3.378906 c -0.59375,0 -1.046875,-0.449219 -1.046875,-1.046875 0,-0.59375 0.453125,-1.046875 1.046875,-1.046875 H 14.632812 V -8.328125 H 3.378906 c -1.402344,0 -2.425781,1.023437 -2.425781,2.425781 0,1.40625 1.023437,2.429688 2.425781,2.429688 H 12.5625 c 0.59375,0 1.046875,0.449218 1.046875,1.046875 0,0.59375 -0.453125,1.046875 -1.046875,1.046875 H 1.308594 V 0 H 12.5625 c 1.402344,0 2.425781,-1.023438 2.425781,-2.425781 0,-1.40625 -1.023437,-2.429688 -2.425781,-2.429688 z m 0,0"
           id="path7" />
      </g>
    </g>
  </g>
  <g
     fill="#ffffff"
     fill-opacity="1"
     id="g19"
     transform="translate(-111.37494,-164.05419)">
    <g
       transform="translate(155.61633,190.92597)"
       id="g18">
      <g
         id="g17">
        <path
           d="m 0.953125,0 h 1.378906 v -3.472656 h 8.492188 c 1.609375,0 2.785156,1.175781 2.785156,2.78125 V 0 h 1.378906 v -0.691406 c 0,-1.246094 -0.460937,-2.320313 -1.246093,-3.054688 0.761718,-0.394531 1.246093,-1.191406 1.246093,-2.15625 0,-1.402344 -1.023437,-2.425781 -2.425781,-2.425781 H 0.953125 Z m 1.378906,-4.855469 v -2.09375 H 12.5625 c 0.59375,0 1.046875,0.453125 1.046875,1.046875 0,0.597656 -0.453125,1.046875 -1.046875,1.046875 z m 0,0"
           id="path16" />
      </g>
    </g>
  </g>
  <g
     fill="#ffffff"
     fill-opacity="1"
     id="g22"
     transform="translate(-111.37494,-164.05419)">
    <g
       transform="translate(171.55648,190.92597)"
       id="g21">
      <g
         id="g20">
        <path
           d="M 12.5625,-8.328125 H 3.378906 c -1.402344,0 -2.425781,1.023437 -2.425781,2.425781 v 3.476563 C 0.953125,-1.023438 1.976562,0 3.378906,0 H 12.5625 c 1.402344,0 2.425781,-1.023438 2.425781,-2.425781 v -3.476563 c 0,-1.402344 -1.023437,-2.425781 -2.425781,-2.425781 z M 2.332031,-2.425781 v -3.476563 c 0,-0.59375 0.453125,-1.046875 1.046875,-1.046875 H 12.5625 c 0.59375,0 1.046875,0.453125 1.046875,1.046875 v 3.476563 c 0,0.59375 -0.453125,1.046875 -1.046875,1.046875 H 3.378906 c -0.59375,0 -1.046875,-0.453125 -1.046875,-1.046875 z m 0,0"
           id="path19" />
      </g>
    </g>
  </g>
  <g
     fill="#ffffff"
     fill-opacity="1"
     id="g28"
     transform="translate(-111.37494,-164.05419)">
    <g
       transform="translate(194.15819,190.92597)"
       id="g27">
      <g
         id="g26">
        <path
           d="m 2.332031,-2.425781 v -3.476563 c 0,-0.59375 0.453125,-1.046875 1.046875,-1.046875 H 14.988281 V -8.328125 H 3.378906 c -1.402344,0 -2.425781,1.023437 -2.425781,2.425781 v 3.476563 C 0.953125,-1.023438 1.976562,0 3.378906,0 H 14.988281 V -1.378906 H 3.378906 c -0.59375,0 -1.046875,-0.453125 -1.046875,-1.046875 z m 0,0"
           id="path25" />
      </g>
    </g>
  </g>
  <g
     fill="#ffffff"
     fill-opacity="1"
     id="g31"
     transform="translate(-111.37494,-164.05419)">
    <g
       transform="translate(210.09834,190.92597)"
       id="g30">
      <g
         id="g29">
        <path
           d="M 2.332031,-2.425781 V -8.328125 H 0.953125 v 5.902344 C 0.953125,-1.023438 1.976562,0 3.378906,0 H 14.988281 V -1.378906 H 3.378906 c -0.59375,0 -1.046875,-0.453125 -1.046875,-1.046875 z m 0,0"
           id="path28" />
      </g>
    </g>
  </g>
  <g
     fill="#ffffff"
     fill-opacity="1"
     id="g34"
     transform="translate(-111.37494,-164.05419)">
    <g
       transform="translate(226.03849,190.92597)"
       id="g33">
      <g
         id="g32">
        <path
           d="m 13.609375,-8.328125 v 5.902344 c 0,0.59375 -0.453125,1.046875 -1.046875,1.046875 H 3.378906 c -0.59375,0 -1.046875,-0.453125 -1.046875,-1.046875 V -8.328125 H 0.953125 v 5.902344 C 0.953125,-1.023438 1.976562,0 3.378906,0 H 12.5625 c 1.402344,0 2.425781,-1.023438 2.425781,-2.425781 v -5.902344 z m 0,0"
           id="path31" />
      </g>
    </g>
  </g>
  <g
     fill="#ffffff"
     fill-opacity="1"
     id="g37"
     transform="translate(-111.37494,-164.05419)">
    <g
       transform="translate(241.97864,190.92597)"
       id="g36">
      <g
         id="g35">
        <path
           d="M 0.953125,0 H 12.5625 c 1.402344,0 2.425781,-1.023438 2.425781,-2.425781 0,-0.703125 -0.25,-1.308594 -0.6875,-1.738281 0.4375,-0.429688 0.6875,-1.035157 0.6875,-1.738282 0,-1.402344 -1.023437,-2.425781 -2.425781,-2.425781 H 0.953125 Z m 1.378906,-1.378906 v -2.09375 H 12.5625 c 0.59375,0 1.046875,0.449218 1.046875,1.046875 0,0.59375 -0.453125,1.046875 -1.046875,1.046875 z m 0,-3.476563 v -2.09375 H 12.5625 c 0.59375,0 1.046875,0.453125 1.046875,1.046875 0,0.597656 -0.453125,1.046875 -1.046875,1.046875 z m 0,0"
           id="path34" />
      </g>
    </g>
  </g>
  <g
     fill="#ffffff"
     fill-opacity="1"
     id="g43"
     transform="translate(-111.37494,-164.05419)">
    <g
       transform="translate(160.37074,203.94192)"
       id="g42">
      <g
         id="g41">
        <path
           d="m 0.828125,-6.25 h 2.71875 c 0.644531,0 1.15625,0.140625 1.53125,0.421875 0.375,0.273437 0.5625,0.652344 0.5625,1.140625 0,0.34375 -0.101563,0.640625 -0.296875,0.890625 -0.199219,0.25 -0.464844,0.417969 -0.796875,0.5 0.414063,0.074219 0.738281,0.25 0.96875,0.53125 0.238281,0.28125 0.359375,0.632813 0.359375,1.046875 0,0.542969 -0.203125,0.964844 -0.609375,1.265625 C 4.867188,-0.148438 4.316406,0 3.609375,0 H 0.828125 Z M 1.875,-5.3125 v 1.640625 h 1.609375 c 0.332031,0 0.59375,-0.070313 0.78125,-0.21875 C 4.460938,-4.035156 4.5625,-4.238281 4.5625,-4.5 4.5625,-4.757812 4.46875,-4.957031 4.28125,-5.09375 4.09375,-5.238281 3.828125,-5.3125 3.484375,-5.3125 Z m 0,2.578125 V -0.9375 h 1.609375 c 0.414063,0 0.738281,-0.078125 0.96875,-0.234375 0.226563,-0.15625 0.34375,-0.378906 0.34375,-0.671875 0,-0.28125 -0.117187,-0.5 -0.34375,-0.65625 -0.230469,-0.15625 -0.554687,-0.234375 -0.96875,-0.234375 z m 0,0"
           id="path40" />
      </g>
    </g>
  </g>
  <g
     fill="#ffffff"
     fill-opacity="1"
     id="g46"
     transform="translate(-111.37494,-164.05419)">
    <g
       transform="translate(167.75699,203.94192)"
       id="g45">
      <g
         id="g44">
        <path
           d="M 1.875,0 H 0.828125 V -6.25 H 1.875 Z m 0,0"
           id="path43" />
      </g>
    </g>
  </g>
  <g
     fill="#ffffff"
     fill-opacity="1"
     id="g49"
     transform="translate(-111.37494,-164.05419)">
    <g
       transform="translate(171.5306,203.94192)"
       id="g48">
      <g
         id="g47">
        <path
           d="M 5.09375,-5.3125 H 3.109375 V 0 H 2.0625 V -5.3125 H 0.078125 V -6.25 H 5.09375 Z m 0,0"
           id="path46" />
      </g>
    </g>
  </g>
  <g
     fill="#ffffff"
     fill-opacity="1"
     id="g52"
     transform="translate(-111.37494,-164.05419)">
    <g
       transform="translate(177.7812,203.94192)"
       id="g51">
      <g
         id="g50">
        <path
           d="m 2.875,-6.296875 c 0.8125,0 1.539062,0.214844 2.1875,0.640625 L 4.625,-4.734375 C 3.988281,-5.117188 3.378906,-5.3125 2.796875,-5.3125 c -0.3125,0 -0.5625,0.058594 -0.75,0.171875 -0.179687,0.117187 -0.265625,0.277344 -0.265625,0.484375 0,0.210938 0.082031,0.386719 0.25,0.53125 0.164062,0.148438 0.375,0.257812 0.625,0.328125 0.25,0.0625 0.519531,0.148437 0.8125,0.25 0.289062,0.105469 0.5625,0.21875 0.8125,0.34375 0.25,0.117187 0.453125,0.296875 0.609375,0.546875 0.164063,0.242188 0.25,0.539062 0.25,0.890625 0,0.542969 -0.21875,0.980469 -0.65625,1.3125 -0.4375,0.324219 -1.007813,0.484375 -1.703125,0.484375 -0.46875,0 -0.929688,-0.0859375 -1.375,-0.265625 C 0.957031,-0.410156 0.566406,-0.648438 0.234375,-0.953125 L 0.6875,-1.875 c 0.3125,0.292969 0.65625,0.523438 1.03125,0.6875 0.382812,0.15625 0.75,0.234375 1.09375,0.234375 0.363281,0 0.648438,-0.066406 0.859375,-0.203125 0.207031,-0.132812 0.3125,-0.320312 0.3125,-0.5625 0,-0.207031 -0.085937,-0.382812 -0.25,-0.53125 -0.167969,-0.144531 -0.382813,-0.253906 -0.640625,-0.328125 -0.25,-0.070313 -0.523438,-0.15625 -0.8125,-0.25 -0.292969,-0.09375 -0.5625,-0.195313 -0.8125,-0.3125 -0.25,-0.113281 -0.460938,-0.289063 -0.625,-0.53125 -0.167969,-0.25 -0.25,-0.546875 -0.25,-0.890625 0,-0.53125 0.207031,-0.953125 0.625,-1.265625 0.414062,-0.3125 0.96875,-0.46875 1.65625,-0.46875 z m 0,0"
           id="path49" />
      </g>
    </g>
  </g>
  <g
     fill="#ffffff"
     fill-opacity="1"
     id="g58"
     transform="translate(-111.37494,-164.05419)">
    <g
       transform="translate(187.79646,203.94192)"
       id="g57">
      <g
         id="g56">
        <path
           d="M 0.828125,-6.25 H 3.3125 c 0.789062,0 1.398438,0.1875 1.828125,0.5625 0.4375,0.367188 0.65625,0.886719 0.65625,1.5625 0,0.710938 -0.21875,1.261719 -0.65625,1.65625 C 4.710938,-2.082031 4.101562,-1.890625 3.3125,-1.890625 H 1.875 V 0 H 0.828125 Z M 1.875,-5.3125 v 2.484375 h 1.390625 c 1.007813,0 1.515625,-0.421875 1.515625,-1.265625 0,-0.8125 -0.507812,-1.21875 -1.515625,-1.21875 z m 0,0"
           id="path55" />
      </g>
    </g>
  </g>
  <g
     fill="#ffffff"
     fill-opacity="1"
     id="g61"
     transform="translate(-111.37494,-164.05419)">
    <g
       transform="translate(194.88762,203.94192)"
       id="g60">
      <g
         id="g59">
        <path
           d="M 1.875,0 H 0.828125 V -6.25 H 1.875 Z m 0,0"
           id="path58" />
      </g>
    </g>
  </g>
  <g
     fill="#ffffff"
     fill-opacity="1"
     id="g64"
     transform="translate(-111.37494,-164.05419)">
    <g
       transform="translate(198.66123,203.94192)"
       id="g63">
      <g
         id="g62">
        <path
           d="M 1.875,-0.953125 H 4.578125 V 0 h -3.75 V -6.25 H 1.875 Z m 0,0"
           id="path61" />
      </g>
    </g>
  </g>
  <g
     fill="#ffffff"
     fill-opacity="1"
     id="g67"
     transform="translate(-111.37494,-164.05419)">
    <g
       transform="translate(204.50943,203.94192)"
       id="g66">
      <g
         id="g65">
        <path
           d="M 4.859375,-1.40625 H 1.703125 L 1.109375,0 h -1.09375 l 2.75,-6.25 h 1.09375 L 6.59375,0 H 5.453125 Z M 4.453125,-2.34375 3.28125,-5.125 2.09375,-2.34375 Z m 0,0"
           id="path64" />
      </g>
    </g>
  </g>
  <g
     fill="#ffffff"
     fill-opacity="1"
     id="g70"
     transform="translate(-111.37494,-164.05419)">
    <g
       transform="translate(212.18184,203.94192)"
       id="g69">
      <g
         id="g68">
        <path
           d="M 6.25,0 H 5.203125 L 1.875,-4.484375 V 0 H 0.828125 v -6.25 h 1.03125 l 3.34375,4.484375 V -6.25 H 6.25 Z m 0,0"
           id="path67" />
      </g>
    </g>
  </g>
  <g
     fill="#ffffff"
     fill-opacity="1"
     id="g73"
     transform="translate(-111.37494,-164.05419)">
    <g
       transform="translate(220.33712,203.94192)"
       id="g72">
      <g
         id="g71">
        <path
           d="M 1.875,0 H 0.828125 V -6.25 H 1.875 Z m 0,0"
           id="path70" />
      </g>
    </g>
  </g>
</svg>
