<?xml version="1.0" encoding="UTF-8" standalone="no"?>
<!-- Created with Inkscape (http://www.inkscape.org/) -->

<svg
   width="145.25394mm"
   height="146.97881mm"
   viewBox="0 0 145.25394 146.97881"
   version="1.1"
   id="svg1"
   xml:space="preserve"
   xmlns:inkscape="http://www.inkscape.org/namespaces/inkscape"
   xmlns:sodipodi="http://sodipodi.sourceforge.net/DTD/sodipodi-0.dtd"
   xmlns="http://www.w3.org/2000/svg"
   xmlns:svg="http://www.w3.org/2000/svg"><sodipodi:namedview
     id="namedview1"
     pagecolor="#ffffff"
     bordercolor="#000000"
     borderopacity="0.25"
     inkscape:showpageshadow="2"
     inkscape:pageopacity="0.0"
     inkscape:pagecheckerboard="0"
     inkscape:deskcolor="#d1d1d1"
     inkscape:document-units="mm" /><defs
     id="defs1" /><g
     inkscape:label="Layer 1"
     inkscape:groupmode="layer"
     id="layer1"
     transform="translate(-42.035832,-85.266653)"><path
       style="fill:#ffffff;fill-opacity:1"
       d="m 75.93281,232.10701 c -5.327896,-0.19526 -10.388104,-1.11397 -13.800772,-2.50562 -1.674399,-0.6828 -2.631965,-1.15028 -4.062499,-1.98332 -4.465575,-2.60042 -7.534793,-5.4993 -10.411601,-9.83376 -3.416494,-5.14761 -4.955052,-10.68428 -5.457806,-19.64052 -0.217083,-3.86719 -0.219933,-71.3061 -0.0033,-77.04382 0.262838,-6.96011 0.716888,-10.04777 2.107003,-14.32817 1.545121,-4.7577 3.960611,-8.621434 7.809927,-12.492505 2.576934,-2.591498 6.816817,-5.239992 10.625876,-6.63758 3.065864,-1.124901 5.966974,-1.709488 10.610527,-2.138069 3.409641,-0.314695 79.041175,-0.316586 82.481805,-0.0021 8.10957,0.741335 12.50949,2.227758 18.12604,6.123511 4.00165,2.775631 8.32255,8.18617 10.02242,12.549863 0.15766,0.40473 0.38535,0.95663 0.50597,1.22645 0.52625,1.17715 1.21856,3.6179 1.66982,5.88696 0.15162,0.76238 0.2293,1.30306 0.68131,4.74228 0.36645,2.78825 0.62678,69.5626 0.30984,79.47397 -0.14729,4.60598 -0.24197,5.88014 -0.66224,8.9122 -0.53093,3.83044 -1.52225,7.05325 -3.23216,10.50786 -1.73592,3.50716 -5.12167,7.73161 -7.98388,9.96161 -4.57706,3.56607 -9.74904,5.80437 -15.24039,6.59564 -4.00001,0.57638 -4.78735,0.6043 -19.2888,0.68385 l -14.52713,0.0797 0.0408,-25.89265 c 0.0225,-14.24096 0.0744,-25.98398 0.11543,-26.09559 0.0578,-0.15721 1.95401,-0.21248 8.41576,-0.24529 7.22304,-0.0367 8.35779,-0.0752 8.4652,-0.28765 0.0682,-0.13491 0.20769,-0.87078 0.30994,-1.63527 0.10226,-0.76448 0.24799,-1.72111 0.32385,-2.12584 0.0759,-0.40473 0.21418,-1.25098 0.30736,-1.88056 0.0932,-0.62958 0.32269,-2.13811 0.51001,-3.3523 1.22298,-7.92698 1.22091,-7.91365 1.52244,-9.79953 0.13554,-0.84779 0.24645,-1.71188 0.24645,-1.9202 v -0.37877 l -10.04793,-0.0421 -10.04793,-0.0421 -0.042,-7.57153 c -0.0477,-8.61115 0.0378,-9.47801 1.17402,-11.90382 1.07676,-2.29878 3.3414,-4.17568 5.9701,-4.94792 1.76701,-0.51911 3.88471,-0.67808 9.03274,-0.67808 h 4.76803 v -9.06608 c 0,-5.23884 -0.0617,-9.10473 -0.1462,-9.15762 -0.17893,-0.11203 -3.73344,-0.64939 -6.47171,-0.97838 -6.00611,-0.72158 -12.11476,-0.75959 -15.81843,-0.0984 -10.87049,1.9406 -17.99041,8.85517 -20.39849,19.81017 -0.75289,3.42508 -0.79915,4.17969 -0.89606,14.61654 l -0.0926,9.97513 -9.281228,0.0818 -9.281221,0.0818 v 10.62924 10.62923 l 9.321574,0.0422 9.321575,0.0422 v 26.08118 26.08118 l -13.195476,-0.0325 c -7.257511,-0.0179 -13.740242,-0.0525 -14.406068,-0.0769 z"
       id="path1"
       inkscape:export-filename="path1.svg"
       inkscape:export-xdpi="96"
       inkscape:export-ydpi="96" /></g></svg>
