<?xml version="1.0" encoding="UTF-8" standalone="no"?>
<!-- Created with Inkscape (http://www.inkscape.org/) -->

<svg
   width="145.53674mm"
   height="145.65971mm"
   viewBox="0 0 145.53674 145.65971"
   version="1.1"
   id="svg1"
   xml:space="preserve"
   xmlns:inkscape="http://www.inkscape.org/namespaces/inkscape"
   xmlns:sodipodi="http://sodipodi.sourceforge.net/DTD/sodipodi-0.dtd"
   xmlns="http://www.w3.org/2000/svg"
   xmlns:svg="http://www.w3.org/2000/svg"><sodipodi:namedview
     id="namedview1"
     pagecolor="#ffffff"
     bordercolor="#000000"
     borderopacity="0.25"
     inkscape:showpageshadow="2"
     inkscape:pageopacity="0.0"
     inkscape:pagecheckerboard="0"
     inkscape:deskcolor="#d1d1d1"
     inkscape:document-units="mm" /><defs
     id="defs1" /><g
     inkscape:label="Layer 1"
     inkscape:groupmode="layer"
     id="layer1"
     transform="translate(-45.916959,-26.358474)"><path
       style="fill:#ffffff;fill-opacity:1"
       d="m 91.964999,171.84882 c -11.422939,-0.43402 -17.933077,-1.80368 -24.671775,-5.19067 -4.437096,-2.23017 -8.182558,-5.22818 -11.625836,-9.30577 -4.861348,-5.75689 -7.972781,-13.55088 -9.035937,-22.6346 -0.633077,-5.40907 -0.714495,-9.45741 -0.714495,-35.526658 0,-26.06925 0.08142,-30.117586 0.714495,-35.526659 1.063156,-9.083719 4.174589,-16.877713 9.035937,-22.634602 7.112386,-8.422605 16.321154,-12.849542 29.256353,-14.064423 5.838142,-0.548322 13.639873,-0.669131 37.502439,-0.580724 26.94992,0.09985 30.18938,0.230173 36.23527,1.457793 9.80498,1.990905 17.12462,6.180094 23.04183,13.187354 4.86135,5.756889 7.97278,13.550883 9.03594,22.634602 0.63307,5.409073 0.71449,9.457409 0.71449,35.526659 0,30.035928 -0.12697,33.609288 -1.42056,39.980048 -1.99006,9.80077 -6.18041,17.12163 -13.18656,23.0379 -5.04035,4.25628 -11.71681,7.20115 -19.44817,8.57825 -2.79567,0.49797 -7.17778,0.86677 -12.8229,1.07919 -5.62937,0.21183 -46.935457,0.19794 -52.610521,-0.0177 z m 56.558041,-13.14104 c 7.15211,-0.49837 11.502,-1.51905 15.85644,-3.72063 2.08109,-1.05219 3.87323,-2.38375 5.79568,-4.3062 5.17018,-5.17018 7.33777,-11.14718 8.04607,-22.18653 0.32532,-5.07033 0.32532,-53.536262 0,-58.606598 -0.48643,-7.581313 -1.47387,-11.908998 -3.73987,-16.390843 -1.05219,-2.081098 -2.38375,-3.873233 -4.3062,-5.795684 -5.17018,-5.170177 -11.14718,-7.33777 -22.18653,-8.046066 -5.07033,-0.325319 -53.536261,-0.325319 -58.606597,0 -7.581313,0.486425 -11.908998,1.473864 -16.390843,3.739863 -2.074114,1.048662 -3.844569,2.363093 -5.78941,4.298205 -5.166224,5.140381 -7.352805,11.17793 -8.047257,22.219939 -0.333736,5.306497 -0.333736,53.249274 0,58.555774 0.476763,7.58069 1.466009,11.92893 3.73478,16.41626 1.067273,2.11092 2.389393,3.89021 4.312477,5.80368 2.663627,2.6503 5.059055,4.186 8.757237,5.61424 4.223537,1.63113 8.500044,2.24131 18.410812,2.62687 4.194464,0.16317 51.402311,-0.0306 54.153211,-0.22228 z m -33.82501,-22.29126 c -10.62042,-1.21424 -20.196827,-6.80077 -26.359207,-15.37703 -3.302216,-4.59573 -5.505314,-9.83381 -6.566974,-15.61362 -0.545428,-2.96938 -0.545428,-9.500115 0,-12.469493 3.655708,-19.902131 21.471061,-33.208418 41.362901,-30.893944 14.77872,1.719548 27.33927,12.373947 31.46686,26.691553 1.13936,3.952166 1.3735,5.731371 1.3735,10.437136 0,3.495128 -0.0621,4.524358 -0.37629,6.234748 -2.92068,15.90054 -14.91948,27.89297 -30.67874,30.66246 -2.34556,0.4122 -7.92145,0.59122 -10.22205,0.32819 z m 9.33137,-13.41914 c 9.3984,-2.1893 16.44021,-9.33716 18.55353,-18.83293 0.59563,-2.67636 0.59563,-7.270294 0,-9.946655 -1.62657,-7.308677 -6.23599,-13.365149 -12.67506,-16.654185 -2.29844,-1.174029 -3.83921,-1.733728 -6.24921,-2.270081 -2.67636,-0.595633 -7.27029,-0.595633 -9.94665,0 -2.41001,0.536353 -3.95078,1.096052 -6.24922,2.270081 -6.43906,3.289036 -11.048481,9.345508 -12.67505,16.654185 -0.595633,2.676361 -0.595633,7.270295 0,9.946655 2.133661,9.5872 9.46018,16.93049 18.8352,18.87832 2.46695,0.51255 2.67534,0.529 5.77494,0.45565 2.12434,-0.0503 3.19245,-0.16582 4.63152,-0.50104 z m 32.15851,-54.101138 c -2.46765,-0.412555 -4.75085,-1.931007 -6.00886,-3.996216 -3.5368,-5.806195 0.5885,-13.256719 7.34694,-13.268985 4.83479,-0.0088 8.7282,3.884635 8.71942,8.719421 -0.008,4.190863 -3.18294,7.910273 -7.30144,8.552502 -1.30003,0.202724 -1.5063,0.202221 -2.75606,-0.0067 z"
       id="path1" /></g></svg>
