<?xml version="1.0" encoding="UTF-8" standalone="no"?>
<!-- Created with Inkscape (http://www.inkscape.org/) -->

<svg
   width="98.066788mm"
   height="95.145355mm"
   viewBox="0 0 98.066788 95.145355"
   version="1.1"
   id="svg1"
   xmlns:inkscape="http://www.inkscape.org/namespaces/inkscape"
   xmlns:sodipodi="http://sodipodi.sourceforge.net/DTD/sodipodi-0.dtd"
   xmlns="http://www.w3.org/2000/svg"
   xmlns:svg="http://www.w3.org/2000/svg">
  <sodipodi:namedview
     id="namedview1"
     pagecolor="#ffffff"
     bordercolor="#000000"
     borderopacity="0.25"
     inkscape:showpageshadow="2"
     inkscape:pageopacity="0.0"
     inkscape:pagecheckerboard="0"
     inkscape:deskcolor="#d1d1d1"
     inkscape:document-units="mm" />
  <defs
     id="defs1">
    <clipPath
       id="2dfd18dce7-0">
      <path
         d="m 127.34375,163 h 41.25 v 36.71094 h -41.25 z m 0,0"
         clip-rule="nonzero"
         id="path1-6" />
    </clipPath>
  </defs>
  <g
     inkscape:label="Layer 1"
     inkscape:groupmode="layer"
     id="layer1"
     transform="translate(-68.842317,-11.112505)">
    <g
       clip-path="url(#2dfd18dce7-0)"
       id="g4"
       transform="matrix(2.7333259,0,0,2.7333259,-287.57088,-437.30107)"
       style="fill:#ffffff;fill-opacity:1">
      <g
         transform="matrix(0.122041,0,0,0.121287,127.34254,162.96261)"
         id="g3"
         style="fill:#ffffff;fill-opacity:1">
        <path
           style="fill:#ffffff;fill-opacity:1"
           d="M 175.45455,293.54545 C 173,291.09091 173,291.09091 172.96959,253.79545 172.95287,233.28295 172.56482,217.175 172.10727,218 c -0.45756,0.825 -4.11956,16.125 -8.13779,34 -4.01822,17.875 -7.86709,33.12084 -8.55304,33.87965 -0.79575,0.88028 -2.18269,1.14485 -3.8318,0.73095 -2.10929,-0.5294 -2.58646,-1.24292 -2.59453,-3.87965 -0.005,-1.77702 1.58856,-27.98095 3.54223,-58.23095 1.95367,-30.25 3.97759,-56.02154 4.4976,-57.27008 0.52001,-1.24854 2.1053,-2.71104 3.52287,-3.25 1.41756,-0.53896 4.55726,-0.97992 6.97711,-0.97992 3.18,0 4.64971,-0.48514 5.30149,-1.75 0.51435,-0.99817 0.63687,-12.4904 0.28518,-26.75 -0.61659,-25 -0.61659,-25 -3.19787,-25.30014 -1.48306,-0.17245 -15.09768,4.45281 -32,10.87126 -16.1803,6.14428 -30.14089,11.37724 -31.02353,11.62881 -1.04935,0.29908 -2.33563,-0.78125 -3.71628,-3.12127 C 102.01761,126.6104 100.28383,125 99.326079,125 c -0.957754,0 -16.084841,6.10257 -33.615748,13.56127 -30.632598,13.03293 -31.968078,13.49987 -34.279492,11.98537 -1.322812,-0.86674 -3.310902,-3.35138 -4.417976,-5.52143 -1.107075,-2.17004 -2.005972,-4.75096 -1.99755,-5.73537 0.0084,-0.98441 0.38449,-2.37177 0.835707,-3.08303 0.451217,-0.71125 15.137279,-7.5517 32.635694,-15.201 17.498414,-7.6493 32.293631,-14.38616 32.878259,-14.97078 0.750612,-0.75062 0.66927,-2.01386 -0.276818,-4.299 -0.736878,-1.779815 -1.395663,-4.284271 -1.463966,-5.565453 -0.116061,-2.176968 6.775794,-5.105761 105.302921,-44.75 C 252.91202,28.089259 301.10478,9 302.02212,9 c 0.91735,0 2.36695,0.7875 3.22134,1.75 0.85439,0.9625 4.29914,9.58151 7.65499,19.153354 C 316.2543,39.475199 319,48.105038 319,49.080774 c 0,0.975736 -1.04615,2.596968 -2.32478,3.602737 -1.27863,1.005768 -27.26613,11.205018 -57.75,22.664999 C 210.48185,93.560111 203.0906,96.612237 200.25,99.577734 197,102.97063 197,102.97063 197,132.37833 c 0,25.89348 0.18902,29.48023 1.58179,30.01468 0.86998,0.33385 4.01998,0.60699 7,0.60699 4.06161,0 5.9126,0.49439 7.39277,1.97456 1.08601,1.08601 2.17997,2.99851 2.43102,4.25 0.25106,1.25149 1.66859,27.62828 3.15008,58.61509 2.40472,50.297 2.53133,56.50193 1.18049,57.85277 -0.92065,0.92065 -2.31116,1.25985 -3.5512,0.86628 -1.64959,-0.52356 -2.51282,-2.68745 -4.52889,-11.35278 -1.36996,-5.88825 -4.89051,-21.39082 -7.82345,-34.45014 -2.93293,-13.05932 -5.67011,-23.74682 -6.08261,-23.75 -0.4125,-0.003 -0.75,16.66467 -0.75,37.03967 0,37.04546 0,37.04546 -2.45455,39.5 C 192.40093,295.68998 191.19529,296 185,296 c -6.19529,0 -7.40093,-0.31002 -9.54545,-2.45455 z"
           id="path73" />
      </g>
    </g>
  </g>
</svg>
